<svg width="333" height="136" viewBox="0 0 333 136" fill="none" xmlns="http://www.w3.org/2000/svg">
<path d="M0 102L40.5476 63.2955C42.4797 61.4512 45.5203 61.4512 47.4524 63.2955L88 102V136H0V102Z" fill="#0B8E36"/>
<path d="M0 43L40.5053 3.41524C42.4482 1.51649 45.5518 1.51649 47.4947 3.41524L88 43V75L44 31.5L0 75V43Z" fill="#292E47"/>
<path d="M122.768 84.576C132.416 84.576 138.08 80.064 138.08 71.184V51.024H129.488V71.04C129.488 75.312 127.088 77.856 122.768 77.856C118.448 77.856 116.144 75.312 116.144 71.04V51.024H107.504V71.184C107.504 80.064 113.168 84.576 122.768 84.576ZM145.194 84H153.786V72.864H163.146C169.866 72.864 173.994 68.544 173.994 61.872C173.994 55.344 170.01 51.024 163.338 51.024H145.194V84ZM153.786 66.24V57.696H161.13C163.866 57.696 165.258 59.184 165.258 61.968C165.258 64.704 163.818 66.24 161.13 66.24H153.786ZM186.262 84H194.854V58.08H205.558V51.024H175.558V58.08H186.262V84ZM224.878 84.576C235.678 84.576 242.158 78.912 242.158 67.488C242.158 56.112 235.678 50.448 224.878 50.448C214.03 50.448 207.598 56.112 207.598 67.488C207.598 78.912 214.03 84.576 224.878 84.576ZM224.878 77.856C219.31 77.856 216.43 74.4 216.43 68.592V66.432C216.43 60.624 219.31 57.168 224.878 57.168C230.398 57.168 233.326 60.624 233.326 66.432V68.592C233.326 74.4 230.398 77.856 224.878 77.856ZM252.093 84H261.837L266.013 65.76C266.301 64.464 266.637 62.304 266.877 60.96H267.069C267.309 62.304 267.693 64.464 267.981 65.76L272.205 84H281.805L290.109 51.024H281.661L277.773 68.352C277.533 69.552 277.101 71.712 276.861 73.008H276.669C276.429 71.568 275.997 69.312 275.757 68.352L271.869 51.024H262.509L258.717 68.352C258.477 69.456 258.141 71.664 257.901 73.008H257.709C257.469 71.52 256.989 69.216 256.845 68.352L252.813 51.024H243.789L252.093 84ZM294.022 84H301.99V64.992L302.23 64.944C302.71 65.664 303.43 66.864 304.294 67.872L317.014 84H324.598V51.024H316.63V70.032L316.39 70.08C315.862 69.216 314.326 67.152 313.654 66.336L301.654 51.024H294.022V84ZM122.768 127.576C132.032 127.576 138.032 123.064 138.032 114.184H129.92C129.92 118.456 127.28 120.856 122.72 120.856C117.344 120.856 114.992 117.496 114.992 111.592V109.432C114.992 103.624 117.344 100.168 122.768 100.168C126.992 100.168 129.632 102.712 129.632 106.936H138.032C138.032 98.008 131.696 93.448 122.768 93.448C112.016 93.448 106.16 99.112 106.16 110.488C106.16 122.056 112.016 127.576 122.768 127.576ZM139.962 127H148.794L150.762 121.288H163.914L165.882 127H175.05L162.666 94.024H152.346L139.962 127ZM152.826 114.856L155.226 107.896C155.754 106.168 156.666 103.336 157.146 101.512H157.482C158.01 103.384 158.97 106.504 159.45 107.896L161.802 114.856H152.826ZM179.038 127H187.63V115.384H195.166L200.638 127H210.238L203.614 113.944C207.118 112.12 209.182 108.664 209.182 104.44C209.182 98.536 205.534 94.024 198.19 94.024H179.038V127ZM187.63 109V100.552H196.558C198.958 100.552 200.446 102.184 200.446 104.68C200.446 107.32 198.862 109 196.558 109H187.63ZM215.038 127H223.63V115.384H231.166L236.638 127H246.238L239.614 113.944C243.118 112.12 245.182 108.664 245.182 104.44C245.182 98.536 241.534 94.024 234.19 94.024H215.038V127ZM223.63 109V100.552H232.558C234.958 100.552 236.446 102.184 236.446 104.68C236.446 107.32 234.862 109 232.558 109H223.63ZM251.038 127H259.63V94.024H251.038V127ZM266.93 127H294.482V120.28H275.522V113.512H291.794V106.936H275.522V100.744H294.146V94.024H266.93V127ZM300.397 127H308.989V115.384H316.525L321.997 127H331.597L324.973 113.944C328.477 112.12 330.541 108.664 330.541 104.44C330.541 98.536 326.893 94.024 319.549 94.024H300.397V127ZM308.989 109V100.552H317.917C320.317 100.552 321.805 102.184 321.805 104.68C321.805 107.32 320.221 109 317.917 109H308.989Z" fill="#292E47"/>
</svg>
