<svg width="27" height="27" viewBox="0 0 27 27" fill="none" xmlns="http://www.w3.org/2000/svg">
<path fill-rule="evenodd" clip-rule="evenodd" d="M23.0563 3.92587C20.5239 1.39202 17.1473 0 13.5516 0C6.14749 0 0.11599 6.00428 0.109547 13.3749C0.109547 15.7356 0.728162 18.0321 1.90095 20.0656L0 27L7.12697 25.1397C9.09236 26.2046 11.3026 26.7691 13.5516 26.7691H13.558C20.9621 26.7691 26.9936 20.7648 27 13.3877C26.9936 9.81468 25.5952 6.45331 23.0563 3.92587ZM13.5516 24.5046C11.5411 24.5046 9.57566 23.9658 7.86158 22.9522L7.45561 22.7085L3.2284 23.8118L4.35609 19.7063L4.09189 19.283C2.97064 17.5125 2.38425 15.4661 2.38425 13.3685C2.38425 7.24875 7.39761 2.25802 13.558 2.25802C16.5415 2.25802 19.3446 3.4191 21.4582 5.51675C23.5654 7.62081 24.7253 10.4113 24.7253 13.3813C24.7189 19.5203 19.7055 24.5046 13.5516 24.5046ZM19.6797 16.1782C19.3446 16.0114 17.695 15.2031 17.3857 15.0877C17.0764 14.9786 16.8508 14.9209 16.6317 15.2545C16.4062 15.588 15.7618 16.345 15.5685 16.5631C15.3752 16.7876 15.1754 16.8133 14.8403 16.6465C14.5053 16.4797 13.4227 16.1269 12.1403 14.985C11.1415 14.0998 10.4714 13.0029 10.2716 12.6693C10.0783 12.3357 10.2523 12.1561 10.4198 11.9893C10.568 11.8418 10.7549 11.598 10.9224 11.4056C11.09 11.2131 11.148 11.072 11.2575 10.8475C11.3671 10.623 11.3155 10.4305 11.2317 10.2637C11.148 10.0969 10.4778 8.44833 10.1943 7.78118C9.92363 7.12687 9.64654 7.21668 9.44033 7.21026C9.24702 7.19743 9.02148 7.19743 8.79594 7.19743C8.57041 7.19743 8.20955 7.28083 7.90024 7.6144C7.59093 7.94797 6.72745 8.75624 6.72745 10.4048C6.72745 12.0535 7.93246 13.6379 8.1 13.8624C8.26754 14.087 10.4649 17.4612 13.8351 18.9109C14.6341 19.2573 15.2592 19.4626 15.7489 19.6165C16.5544 19.8731 17.2826 19.8346 17.8625 19.7512C18.5069 19.655 19.8473 18.943 20.1308 18.1604C20.4079 17.3778 20.4079 16.7106 20.3241 16.5695C20.2403 16.4284 20.0148 16.345 19.6797 16.1782Z" fill="#161717"/>
</svg>
